<mxfile host="app.diagrams.net" modified="2024-04-11T04:19:17.547Z" agent="Mozilla/5.0 (Windows NT 10.0; Win64; x64) AppleWebKit/537.36 (KHTML, like Gecko) Chrome/121.0.0.0 Safari/537.36 OPR/107.0.0.0" etag="UwD2-ioh93eV9vXhl7RY" version="24.2.3" type="github">
  <diagram name="PÃ¡gina-1" id="soYXYdCuxPibnIwTYrpd">
    <mxGraphModel dx="961" dy="528" grid="1" gridSize="10" guides="1" tooltips="1" connect="1" arrows="1" fold="1" page="1" pageScale="1" pageWidth="827" pageHeight="1169" math="0" shadow="0">
      <root>
        <mxCell id="0" />
        <mxCell id="1" parent="0" />
        <mxCell id="Nh-gKlwQtsyJ-tAg3NQQ-5" value="" style="edgeStyle=orthogonalEdgeStyle;rounded=0;orthogonalLoop=1;jettySize=auto;html=1;" edge="1" parent="1" source="Nh-gKlwQtsyJ-tAg3NQQ-1" target="Nh-gKlwQtsyJ-tAg3NQQ-3">
          <mxGeometry relative="1" as="geometry" />
        </mxCell>
        <mxCell id="Nh-gKlwQtsyJ-tAg3NQQ-1" value="INICIO" style="ellipse;whiteSpace=wrap;html=1;" vertex="1" parent="1">
          <mxGeometry x="354" y="10" width="120" height="40" as="geometry" />
        </mxCell>
        <mxCell id="Nh-gKlwQtsyJ-tAg3NQQ-2" value="NUM1" style="shape=parallelogram;perimeter=parallelogramPerimeter;whiteSpace=wrap;html=1;fixedSize=1;" vertex="1" parent="1">
          <mxGeometry x="354" y="60" width="120" height="40" as="geometry" />
        </mxCell>
        <mxCell id="Nh-gKlwQtsyJ-tAg3NQQ-6" value="" style="edgeStyle=orthogonalEdgeStyle;rounded=0;orthogonalLoop=1;jettySize=auto;html=1;" edge="1" parent="1" source="Nh-gKlwQtsyJ-tAg3NQQ-3" target="Nh-gKlwQtsyJ-tAg3NQQ-4">
          <mxGeometry relative="1" as="geometry" />
        </mxCell>
        <mxCell id="Nh-gKlwQtsyJ-tAg3NQQ-3" value="NUM2" style="shape=parallelogram;perimeter=parallelogramPerimeter;whiteSpace=wrap;html=1;fixedSize=1;" vertex="1" parent="1">
          <mxGeometry x="354" y="120" width="120" height="40" as="geometry" />
        </mxCell>
        <mxCell id="Nh-gKlwQtsyJ-tAg3NQQ-10" value="" style="edgeStyle=orthogonalEdgeStyle;rounded=0;orthogonalLoop=1;jettySize=auto;html=1;" edge="1" parent="1" source="Nh-gKlwQtsyJ-tAg3NQQ-4" target="Nh-gKlwQtsyJ-tAg3NQQ-9">
          <mxGeometry relative="1" as="geometry" />
        </mxCell>
        <mxCell id="Nh-gKlwQtsyJ-tAg3NQQ-4" value="NUM3" style="shape=parallelogram;perimeter=parallelogramPerimeter;whiteSpace=wrap;html=1;fixedSize=1;" vertex="1" parent="1">
          <mxGeometry x="354" y="180" width="120" height="40" as="geometry" />
        </mxCell>
        <mxCell id="Nh-gKlwQtsyJ-tAg3NQQ-15" value="" style="edgeStyle=orthogonalEdgeStyle;rounded=0;orthogonalLoop=1;jettySize=auto;html=1;" edge="1" parent="1" source="Nh-gKlwQtsyJ-tAg3NQQ-7" target="Nh-gKlwQtsyJ-tAg3NQQ-8">
          <mxGeometry relative="1" as="geometry" />
        </mxCell>
        <mxCell id="Nh-gKlwQtsyJ-tAg3NQQ-7" value="SUMA := NUM1 + NUM2" style="rounded=0;whiteSpace=wrap;html=1;" vertex="1" parent="1">
          <mxGeometry x="313" y="300" width="201" height="40" as="geometry" />
        </mxCell>
        <mxCell id="Nh-gKlwQtsyJ-tAg3NQQ-17" value="" style="edgeStyle=orthogonalEdgeStyle;rounded=0;orthogonalLoop=1;jettySize=auto;html=1;" edge="1" parent="1" source="Nh-gKlwQtsyJ-tAg3NQQ-8" target="Nh-gKlwQtsyJ-tAg3NQQ-16">
          <mxGeometry relative="1" as="geometry" />
        </mxCell>
        <mxCell id="Nh-gKlwQtsyJ-tAg3NQQ-8" value="PRODUCTO := NUM3 * NUM4" style="rounded=0;whiteSpace=wrap;html=1;" vertex="1" parent="1">
          <mxGeometry x="313" y="360" width="201" height="40" as="geometry" />
        </mxCell>
        <mxCell id="Nh-gKlwQtsyJ-tAg3NQQ-14" value="" style="edgeStyle=orthogonalEdgeStyle;rounded=0;orthogonalLoop=1;jettySize=auto;html=1;" edge="1" parent="1" source="Nh-gKlwQtsyJ-tAg3NQQ-9" target="Nh-gKlwQtsyJ-tAg3NQQ-7">
          <mxGeometry relative="1" as="geometry" />
        </mxCell>
        <mxCell id="Nh-gKlwQtsyJ-tAg3NQQ-9" value="NUM4" style="shape=parallelogram;perimeter=parallelogramPerimeter;whiteSpace=wrap;html=1;fixedSize=1;" vertex="1" parent="1">
          <mxGeometry x="354" y="240" width="120" height="40" as="geometry" />
        </mxCell>
        <mxCell id="Nh-gKlwQtsyJ-tAg3NQQ-19" value="" style="edgeStyle=orthogonalEdgeStyle;rounded=0;orthogonalLoop=1;jettySize=auto;html=1;" edge="1" parent="1" source="Nh-gKlwQtsyJ-tAg3NQQ-16" target="Nh-gKlwQtsyJ-tAg3NQQ-18">
          <mxGeometry relative="1" as="geometry" />
        </mxCell>
        <mxCell id="Nh-gKlwQtsyJ-tAg3NQQ-16" value="SUMA&lt;div&gt;PRODUCTO&lt;/div&gt;" style="shape=document;whiteSpace=wrap;html=1;boundedLbl=1;" vertex="1" parent="1">
          <mxGeometry x="354" y="420" width="120" height="50" as="geometry" />
        </mxCell>
        <mxCell id="Nh-gKlwQtsyJ-tAg3NQQ-18" value="FIN" style="ellipse;whiteSpace=wrap;html=1;" vertex="1" parent="1">
          <mxGeometry x="354" y="480" width="120" height="40" as="geometry" />
        </mxCell>
      </root>
    </mxGraphModel>
  </diagram>
</mxfile>
